<svg viewBox="285 0 120 140" xmlns="http://www.w3.org/2000/svg" fill="#f10044" aria-label="Equinor logo">
  <path d="M300.704,29.427L300.705,65.692C300.704,66.766 301.242,67.759 302.174,68.295L333.597,86.398C334.93,87.166 336.63,86.204 336.631,84.665L336.631,48.402C336.632,47.327 336.058,46.334 335.127,45.797L303.705,27.696C302.371,26.927 300.706,27.889 300.704,29.427M397.488,1.111L352.25,27.173C350.909,27.945 350.084,29.374 350.086,30.921L350.086,83.13C350.088,85.346 352.534,86.73 354.454,85.624L399.693,59.563C401.033,58.79 401.808,57.361 401.807,55.814L401.808,3.605C401.806,1.389 399.408,0.005 397.488,1.111M335.431,112.152L322.858,119.395C322.486,119.61 322.257,120.007 322.257,120.437L322.256,134.946C322.256,135.562 322.937,135.947 323.471,135.639L336.043,128.396C336.416,128.182 336.632,127.784 336.631,127.355L336.631,112.845C336.631,112.23 335.964,111.845 335.431,112.152M328.103,98.764L309.275,87.869C308.718,87.547 308.029,87.547 307.472,87.869L288.643,98.764C287.845,99.226 287.845,100.379 288.643,100.842L307.472,111.736C308.029,112.059 308.718,112.059 309.275,111.736L328.103,100.842C328.902,100.379 328.902,99.226 328.103,98.764M358.415,100.728L366.78,105.568C367.275,105.855 367.887,105.855 368.383,105.568L376.748,100.728C377.458,100.317 377.458,99.291 376.748,98.88L368.383,94.04C367.887,93.753 367.275,93.753 366.78,94.04L358.415,98.88C357.705,99.291 357.705,100.317 358.415,100.728M351.685,112.377L360.059,117.201C360.556,117.488 360.861,118.017 360.861,118.59L360.851,128.254C360.85,129.074 359.963,129.587 359.252,129.178L350.878,124.354C350.382,124.068 350.087,123.536 350.087,122.965L350.086,113.301C350.086,112.482 350.975,111.967 351.685,112.377"/>
</svg>
