<?xml version="1.0" encoding="UTF-8" standalone="no"?>
<svg
   version="1.1"
   id="Layer_1"
   x="0px"
   y="0px"
   width="100%"
   viewBox="0 0 1024 1024"
   enable-background="new 0 0 1024 1024"
   xml:space="preserve"
   sodipodi:docname="fox.svg"
   inkscape:version="1.4.3 (0d15f75, 2025-12-25)"
   xmlns:inkscape="http://www.inkscape.org/namespaces/inkscape"
   xmlns:sodipodi="http://sodipodi.sourceforge.net/DTD/sodipodi-0.dtd"
   xmlns="http://www.w3.org/2000/svg"
   xmlns:svg="http://www.w3.org/2000/svg"><defs
   id="defs7">
  <style
   id="style1">
    path { fill: #09637E; }
    @media (prefers-color-scheme: dark) {
      path { fill: #3db8d9; }
    }
  </style>
</defs><sodipodi:namedview
   id="namedview7"
   pagecolor="#505050"
   bordercolor="#eeeeee"
   borderopacity="1"
   inkscape:showpageshadow="0"
   inkscape:pageopacity="0"
   inkscape:pagecheckerboard="0"
   inkscape:deskcolor="#d1d1d1"
   showguides="true"
   showgrid="false"
   inkscape:zoom="0.92138672"
   inkscape:cx="644.13778"
   inkscape:cy="499.79014"
   inkscape:window-width="1827"
   inkscape:window-height="1172"
   inkscape:window-x="229"
   inkscape:window-y="39"
   inkscape:window-maximized="0"
   inkscape:current-layer="Layer_1"><inkscape:grid
     id="grid7"
     units="px"
     originx="0"
     originy="0"
     spacingx="1"
     spacingy="1"
     empcolor="#0099e5"
     empopacity="0.30196078"
     color="#0099e5"
     opacity="0.14902"
     empspacing="5"
     enabled="true"
     visible="false" /></sodipodi:namedview>
<ellipse
   style="fill:#b0b0b0;fill-opacity:1;stroke:#000000;stroke-width:1.23173;stroke-dasharray:none;stroke-opacity:1"
   id="path20"
   cx="509.55801"
   cy="499.79013"
   rx="371.64893"
   ry="456.30396"
   inkscape:label="fox fill" /><path
   fill="#09637E"
   opacity="1"
   stroke="none"
   d="M 227.28092,85.990805 C 287.12619,46.149753 352.19722,20.470715 422.45662,7.9980914 464.81286,0.47888874 507.57263,-1.9396998 550.46027,1.6011266 665.35724,11.08704 766.78678,52.669806 853.14283,129.63918 c 84.53224,75.34387 138.05941,168.57881 161.20577,279.26172 9.9645,47.64929 11.3233,95.89588 8.0837,144.23766 -6.139,91.60583 -36.31285,175.08124 -88.34884,250.47296 -46.71577,67.6836 -106.82857,120.72336 -179.32084,159.82497 -50.54721,27.26462 -104.30239,44.87961 -160.85189,53.98731 -42.02443,6.7682 -84.24081,8.4038 -126.79746,4.4801 C 395.79591,1015.3286 328.51013,995.82196 265.74535,961.40253 184.45521,916.82413 119.95947,854.61763 72.247586,775.16511 36.980292,716.43586 14.90919,652.9435 5.1363826,585.26099 -0.5733189,545.71791 -1.3990599,506.00272 2.0444499,466.09588 6.7871616,411.13293 19.933904,358.39419 41.872437,307.86808 81.795093,215.92312 143.90429,142.3605 227.28092,85.990805 m 233.5851,572.345115 c -24.17494,-21.36463 -49.16152,-57.79573 -48.09471,-70.14457 0.40748,0.0659 0.98813,-0.0192 1.19652,0.21999 3.33749,3.82868 6.56032,7.75842 9.93897,11.54978 25.96275,29.13409 57.07257,51.80252 90.34712,71.76062 3.27424,1.96398 6.26357,1.93711 9.55663,0.0917 37.32042,-20.91321 71.36735,-45.84883 98.33092,-79.53735 1.45566,-1.81871 2.39839,-4.42319 5.55506,-4.40197 0.6533,3.28985 -1.11405,5.61132 -2.13594,8.06028 -13.49765,32.34834 -36.26188,56.99117 -64.59318,76.8779 -3.78888,2.65961 -5.15294,5.54171 -4.84493,10.07086 0.66123,9.72356 1.04663,19.47816 1.13187,29.22354 0.0446,5.1169 1.95756,8.22924 6.68552,10.30431 15.45124,6.78156 29.34222,16.11823 42.55369,26.53551 2.92564,2.3067 5.66045,5.00889 9.58527,6.48704 2.39818,-4.52261 2.19645,-9.26413 2.76669,-13.74914 4.55814,-35.85138 14.78276,-69.97097 31.14764,-102.2023 9.88739,-19.47368 21.59678,-37.97499 31.05988,-57.6824 10.12441,-21.08441 16.66777,-43.19845 16.6568,-66.65732 -0.0104,-20.28931 -4.72167,-39.81634 -12.25995,-58.74238 -7.92416,-19.89502 -18.03347,-38.83193 -25.34981,-58.99493 -1.92451,-5.30369 -0.99291,-8.45234 3.30325,-11.92434 11.55278,-9.33641 22.64891,-19.2106 32.46288,-30.43332 6.5842,-7.52931 6.73071,-7.54352 0.91559,-16.08498 -12.21485,-17.94166 -22.2404,-37.0781 -31.41873,-56.69527 -2.17809,-4.65526 -2.58752,-8.94056 -0.32622,-13.94003 3.39619,-7.50866 6.21854,-15.32731 8.65653,-23.20811 7.65997,-24.76184 7.81061,-50.12072 4.7722,-75.53955 -1.40728,-11.77328 -4.28129,-23.36007 -9.17512,-34.26289 -3.35551,-7.4756 -7.40274,-9.18474 -15.29656,-7.55063 -5.02441,1.04012 -9.77819,2.77774 -14.44973,4.81366 -26.99839,11.7663 -49.24005,29.80399 -68.20863,52.03225 -2.86801,3.36093 -5.54038,4.24904 -9.86359,3.41041 -26.26757,-5.0953 -52.73992,-5.92876 -79.03186,-0.88675 -9.12689,1.75028 -14.73669,-0.45467 -20.86567,-7.15513 -20.33314,-22.2292 -44.37826,-39.34189 -73.15393,-49.22947 -13.45187,-4.6222 -17.32624,-2.78276 -21.95836,10.48759 -5.99591,17.17715 -8.03671,34.93843 -8.53884,53.06504 -0.73019,26.35908 4.55231,51.34201 15.82994,75.04736 2.04307,4.29446 2.14793,7.68893 0.20895,11.9216 -9.47541,20.68454 -20.385,40.56188 -33.62276,59.06188 -3.63091,5.07435 -3.01674,8.4233 1.00107,12.57167 10.63568,10.98139 21.20883,22.07775 33.37769,31.33443 5.73162,4.35997 6.33565,8.30436 3.67209,14.55638 -9.0499,21.24248 -19.50624,41.88857 -26.79681,63.88558 -7.02749,21.20338 -10.68955,42.65725 -7.12765,64.99714 3.41753,21.43408 11.86348,41.0889 21.67049,60.14922 17.23927,33.50512 37.16099,65.79651 45.40202,103.23346 0.66266,3.01037 2.40833,4.04479 5.39266,4.17211 20.13212,0.85854 40.26094,1.80324 60.38517,2.83053 2.65178,0.13539 4.04671,-0.75773 4.38164,-3.3252 0.54692,-4.19247 0.78503,-8.44918 1.67598,-12.56606 0.89416,-4.13225 -0.31127,-6.88743 -3.78342,-9.15802 -6.40075,-4.18592 -12.38633,-8.93499 -18.72433,-14.6797 m 58.53112,258.15983 c 19.90898,1.9298 39.808,1.98463 59.73673,0.10327 28.63463,-2.70304 56.65555,-7.80121 83.34493,-19.09193 32.78614,-13.86993 62.02408,-32.42362 83.52799,-61.49826 1.55053,-2.09633 3.95912,-3.94876 3.41608,-7.18037 -2.75712,-1.51342 -5.41134,-0.53623 -8.07476,-0.0329 -13.92115,2.63145 -27.83554,2.6417 -41.73352,-0.1775 -25.43131,-5.15859 -46.86872,-18.2041 -66.89925,-33.9562 -16.8387,-13.24205 -32.03471,-28.46034 -49.78029,-40.64162 -40.14557,-27.55771 -85.6578,-36.46016 -133.1129,-39.23368 -20.95173,-1.22449 -42.04149,-0.28687 -62.85126,-3.75782 -18.37951,-3.06552 -35.43735,-8.94649 -47.96057,-23.75561 -3.9055,-4.6184 -6.94148,-9.78942 -7.07267,-16.55443 9.03589,6.2199 18.07378,11.94504 28.14935,15.78824 10.05273,3.83457 20.26,6.83492 30.74911,6.7497 1.36582,-2.211 0.58028,-3.61178 0.29104,-5.03625 -2.98012,-14.67441 -9.06161,-28.20746 -15.31593,-41.68417 -9.64712,-20.78737 -22.51151,-39.91635 -31.52745,-61.02136 -3.04321,-7.12366 -5.7821,-14.37706 -8.55319,-21.30395 -2.95696,0.17409 -3.69942,1.86593 -4.51131,3.26197 -10.59294,18.21389 -18.24603,37.59092 -18.25565,58.82302 -0.005,11.11042 -1.949,20.3869 -10.52934,27.72839 -0.31881,0.27282 -0.56788,0.63001 -0.83469,0.95977 -27.30868,33.75743 -36.99528,72.11002 -28.05463,114.44884 7.07881,33.52212 27.32501,59.0465 54.12655,79.2552 56.32597,42.47071 121.42515,60.8973 191.72563,67.80748 M 709.95137,777.63426 c 48.83375,-67.72733 32.879,-152.70325 -4.73777,-203.07126 -1.25605,0.26754 -1.57573,1.385 -1.9196,2.33358 -7.48339,20.64824 -18.78303,39.33256 -29.68787,58.25314 -23.28021,40.39293 -35.28324,84.15161 -38.1514,130.52963 -0.25818,4.17592 0.78239,8.01701 4.11901,10.89197 12.27387,10.57566 25.57424,19.56006 40.32403,26.39521 4.36854,2.02433 7.43882,1.14062 10.67846,-2.2518 6.75,-7.06827 13.28093,-14.28765 19.37514,-23.08047"
   id="path1"
   inkscape:label="path1"
   style="display:inline;stroke-width:1.27342"
   sodipodi:nodetypes="csssssssssssssscccccscsccssssscssscssssssscssssscssssssssssssssscssssccssscssssssscsccssccsscssccccsssssc" />
<path
   fill="#09637E"
   opacity="1"
   stroke="none"
   d="m 640.61102,242.60057 c -12.81409,-13.79008 -26.68128,-25.53252 -43.22719,-33.83157 -3.55513,-1.78321 -5.55655,-3.82332 -2.76731,-7.87636 14.64132,-21.27549 32.12639,-39.4619 55.62456,-51.07343 7.26254,-3.58874 9.72781,-2.58754 11.79407,5.55716 7.9198,31.21859 3.73773,60.96273 -11.83132,89.07939 -4.0886,7.38367 -6.44772,0.59213 -9.59281,-1.85519 z"
   id="path2"
   style="stroke-width:1.27342" />
<path
   fill="#09637E"
   opacity="1"
   stroke="none"
   d="m 375.47059,213.18732 c -4.39087,-18.6886 -5.09662,-36.93698 -1.00356,-55.21967 2.33871,-10.44614 5.20662,-11.81051 14.4325,-6.82917 21.90396,11.82658 39.06845,28.79391 53.09901,49.16275 2.82839,4.10619 2.318,6.60805 -2.14095,9.04325 -16.50902,9.01613 -31.03944,20.53904 -43.38503,34.79658 -4.86809,5.62207 -6.17348,5.30554 -9.79172,-1.47103 -4.9092,-9.19457 -8.57215,-18.86296 -11.21025,-29.48271 z"
   id="path3"
   style="stroke-width:1.27342" />
<path
   fill="#09637E"
   opacity="1"
   stroke="none"
   d="m 559.27341,421.53779 c 8.63616,-12.11703 16.55736,-24.22773 30.48123,-30.52508 9.76271,-4.41537 19.98223,-6.98819 30.46317,-8.77486 1.24554,-0.21229 2.50471,-0.2379 3.56634,0.81128 -0.0692,2.82148 -2.51878,3.22142 -4.24024,4.09423 -16.97221,8.60497 -30.7114,21.06656 -42.72437,35.58679 -11.62035,14.04577 -24.98752,25.37185 -43.65663,28.74739 -22.09056,3.9941 -41.70737,-1.16449 -58.50244,-16.06386 -4.89792,-4.34502 -9.44035,-9.20568 -13.53164,-14.32023 -11.47776,-14.34819 -25.61056,-25.24609 -41.86846,-33.59943 -1.93551,-0.99441 -4.5088,-1.4689 -5.1488,-4.23844 1.45181,-2.06562 3.48996,-1.28607 5.21871,-1.02235 23.45636,3.57837 43.64979,12.93655 56.30099,34.02105 15.84091,26.40057 66.24681,26.62537 83.64214,5.28351 z"
   id="path4"
   style="stroke-width:1.27342" />
<path
   fill="#09637E"
   opacity="1"
   stroke="none"
   d="m 393.9999,316.21785 c 9.22581,-8.03007 19.16062,-14.00081 30.19295,-18.15383 25.9781,-9.77926 48.38292,-0.26212 59.32587,25.29 4.64729,10.85174 6.25035,22.35936 6.97005,34.02663 0.0771,1.25043 0.0174,2.57511 -1.40908,3.47157 -3.00655,0.38433 -3.4944,-2.46133 -4.76047,-4.16442 -4.31582,-5.80546 -9.45016,-8.91289 -17.23475,-8.57652 -20.80559,0.89903 -37.93809,-5.92529 -48.03259,-25.47742 -2.00063,-3.87509 -5.16136,-3.89715 -8.66996,-3.20348 -7.16862,1.4172 -14.3254,2.89446 -21.83844,4.41828 -0.23788,-4.55434 3.33039,-5.27644 5.45642,-7.63081 m 46.84513,10.80893 c 6.45087,6.96752 14.63247,7.71937 23.35634,6.45811 2.91813,-0.42189 4.50338,-1.85808 4.19594,-5.12134 -0.8701,-9.234 -9.72854,-18.35353 -19.12962,-19.36464 -4.95115,-0.53256 -10.45541,-0.61257 -13.33127,3.82229 -2.99317,4.61584 1.11237,8.65523 3.49716,12.5406 0.21852,0.35603 0.5332,0.65313 1.41145,1.66498 z"
   id="path5"
   style="stroke-width:1.27342" />
<path
   fill="#09637E"
   opacity="1"
   stroke="none"
   d="m 548.93345,341.65025 c 2.08734,-9.44707 4.52928,-18.18888 9.35112,-26.08264 10.65591,-17.44468 26.88697,-24.55824 47.26059,-19.78114 16.87423,3.95658 31.12448,13.08698 43.96486,24.49652 0.5442,0.48357 0.73152,1.36796 1.69107,3.2612 -8.18102,-1.42802 -15.35567,-2.47789 -22.43173,-3.98855 -4.5292,-0.96688 -7.69015,-0.13629 -10.07113,4.14566 -9.83185,17.6818 -26.07169,24.52685 -45.16485,24.11381 -9.90511,-0.21428 -16.78955,2.45203 -21.77757,10.70966 -0.50002,0.82771 -1.48964,1.36034 -2.89389,2.59367 -2.63902,-6.77359 -0.76491,-12.86132 0.0716,-19.46819 m 52.46898,-29.70003 c -15.97147,-9.98704 -30.10967,4.18963 -32.4023,17.22468 -0.46597,2.64913 1.26708,3.92804 3.61423,4.26269 5.92384,0.8446 11.83506,0.9755 17.48491,-1.43403 8.72443,-3.72088 13.18497,-10.99731 11.30316,-20.05334 z"
   id="path6"
   style="stroke-width:1.27342" />
<path
   fill="#09637E"
   opacity="1"
   stroke="none"
   d="m 506.93489,399.43537 c 8.90432,-3.66568 17.40338,-3.95248 25.49152,0.55707 8.955,4.99291 9.53255,14.94978 1.55692,21.43156 -7.71628,6.27105 -21.24147,6.42377 -29.05693,0.32824 -8.05907,-6.28554 -7.40578,-15.43949 2.00849,-22.31687 z"
   id="path7"
   style="stroke-width:1.27342" />
</svg>
